<mxfile host="app.diagrams.net" agent="Mozilla/5.0 (Windows NT 10.0; Win64; x64) AppleWebKit/537.36 (KHTML, like Gecko) Chrome/136.0.0.0 Safari/537.36 Edg/136.0.0.0" version="26.0.5">
  <diagram id="C5RBs43oDa-KdzZeNtuy" name="Page-1">
    <mxGraphModel dx="1388" dy="626" grid="1" gridSize="10" guides="1" tooltips="1" connect="1" arrows="1" fold="1" page="1" pageScale="1" pageWidth="827" pageHeight="1169" math="0" shadow="0">
      <root>
        <mxCell id="WIyWlLk6GJQsqaUBKTNV-0" />
        <mxCell id="WIyWlLk6GJQsqaUBKTNV-1" parent="WIyWlLk6GJQsqaUBKTNV-0" />
        <mxCell id="e_u33HRkcJUVZcu0vvAd-0" value="Colaborador" style="swimlane;fontStyle=1;align=center;verticalAlign=top;childLayout=stackLayout;horizontal=1;startSize=26;horizontalStack=0;resizeParent=1;resizeParentMax=0;resizeLast=0;collapsible=1;marginBottom=0;whiteSpace=wrap;html=1;" vertex="1" parent="WIyWlLk6GJQsqaUBKTNV-1">
          <mxGeometry x="350" y="120" width="180" height="160" as="geometry" />
        </mxCell>
        <mxCell id="e_u33HRkcJUVZcu0vvAd-1" value="&lt;div&gt;- id: long&lt;/div&gt;- nome: String&lt;div&gt;- dataNascimento: LocalDate&lt;br&gt;&lt;div&gt;- cpf: String&lt;/div&gt;&lt;/div&gt;&lt;div&gt;- emailInstitucional: String&lt;/div&gt;&lt;div&gt;- telefone: String&lt;/div&gt;&lt;div&gt;- departamento: String&lt;/div&gt;" style="text;strokeColor=none;fillColor=none;align=left;verticalAlign=top;spacingLeft=4;spacingRight=4;overflow=hidden;rotatable=0;points=[[0,0.5],[1,0.5]];portConstraint=eastwest;whiteSpace=wrap;html=1;" vertex="1" parent="e_u33HRkcJUVZcu0vvAd-0">
          <mxGeometry y="26" width="180" height="104" as="geometry" />
        </mxCell>
        <mxCell id="e_u33HRkcJUVZcu0vvAd-2" value="" style="line;strokeWidth=1;fillColor=none;align=left;verticalAlign=middle;spacingTop=-1;spacingLeft=3;spacingRight=3;rotatable=0;labelPosition=right;points=[];portConstraint=eastwest;strokeColor=inherit;" vertex="1" parent="e_u33HRkcJUVZcu0vvAd-0">
          <mxGeometry y="130" width="180" height="30" as="geometry" />
        </mxCell>
        <mxCell id="e_u33HRkcJUVZcu0vvAd-19" style="edgeStyle=orthogonalEdgeStyle;rounded=0;orthogonalLoop=1;jettySize=auto;html=1;exitX=0.5;exitY=0;exitDx=0;exitDy=0;entryX=0.5;entryY=1;entryDx=0;entryDy=0;fillColor=#FFFFFF;endArrow=block;endFill=0;" edge="1" parent="WIyWlLk6GJQsqaUBKTNV-1" source="e_u33HRkcJUVZcu0vvAd-5" target="e_u33HRkcJUVZcu0vvAd-0">
          <mxGeometry relative="1" as="geometry" />
        </mxCell>
        <mxCell id="e_u33HRkcJUVZcu0vvAd-5" value="Medico" style="swimlane;fontStyle=1;align=center;verticalAlign=top;childLayout=stackLayout;horizontal=1;startSize=26;horizontalStack=0;resizeParent=1;resizeParentMax=0;resizeLast=0;collapsible=1;marginBottom=0;whiteSpace=wrap;html=1;" vertex="1" parent="WIyWlLk6GJQsqaUBKTNV-1">
          <mxGeometry x="225" y="320" width="180" height="88" as="geometry" />
        </mxCell>
        <mxCell id="e_u33HRkcJUVZcu0vvAd-6" value="&lt;div&gt;- crm: long&lt;/div&gt;- especialidade: String&lt;div&gt;&lt;br&gt;&lt;/div&gt;" style="text;strokeColor=none;fillColor=none;align=left;verticalAlign=top;spacingLeft=4;spacingRight=4;overflow=hidden;rotatable=0;points=[[0,0.5],[1,0.5]];portConstraint=eastwest;whiteSpace=wrap;html=1;" vertex="1" parent="e_u33HRkcJUVZcu0vvAd-5">
          <mxGeometry y="26" width="180" height="34" as="geometry" />
        </mxCell>
        <mxCell id="e_u33HRkcJUVZcu0vvAd-7" value="" style="line;strokeWidth=1;fillColor=none;align=left;verticalAlign=middle;spacingTop=-1;spacingLeft=3;spacingRight=3;rotatable=0;labelPosition=right;points=[];portConstraint=eastwest;strokeColor=inherit;" vertex="1" parent="e_u33HRkcJUVZcu0vvAd-5">
          <mxGeometry y="60" width="180" height="28" as="geometry" />
        </mxCell>
        <mxCell id="e_u33HRkcJUVZcu0vvAd-39" style="edgeStyle=orthogonalEdgeStyle;shape=connector;rounded=0;orthogonalLoop=1;jettySize=auto;html=1;exitX=0.5;exitY=0;exitDx=0;exitDy=0;strokeColor=default;align=center;verticalAlign=middle;fontFamily=Helvetica;fontSize=11;fontColor=default;labelBackgroundColor=default;endArrow=none;fillColor=#FFFFFF;strokeWidth=1;endFill=0;" edge="1" parent="WIyWlLk6GJQsqaUBKTNV-1">
          <mxGeometry relative="1" as="geometry">
            <mxPoint x="410" y="300" as="targetPoint" />
            <mxPoint x="535" y="320" as="sourcePoint" />
            <Array as="points">
              <mxPoint x="565" y="300" />
            </Array>
          </mxGeometry>
        </mxCell>
        <mxCell id="e_u33HRkcJUVZcu0vvAd-14" value="Suporte" style="swimlane;fontStyle=1;align=center;verticalAlign=top;childLayout=stackLayout;horizontal=1;startSize=26;horizontalStack=0;resizeParent=1;resizeParentMax=0;resizeLast=0;collapsible=1;marginBottom=0;whiteSpace=wrap;html=1;" vertex="1" parent="WIyWlLk6GJQsqaUBKTNV-1">
          <mxGeometry x="460" y="320" width="210" height="100" as="geometry" />
        </mxCell>
        <mxCell id="e_u33HRkcJUVZcu0vvAd-15" value="&lt;div&gt;- funcao: String&lt;/div&gt;- podeGerenciarAgenda: boolean&lt;div&gt;- podeVisualizarProntuario: boolean&lt;br&gt;&lt;div&gt;&lt;br&gt;&lt;/div&gt;&lt;/div&gt;" style="text;strokeColor=none;fillColor=none;align=left;verticalAlign=top;spacingLeft=4;spacingRight=4;overflow=hidden;rotatable=0;points=[[0,0.5],[1,0.5]];portConstraint=eastwest;whiteSpace=wrap;html=1;" vertex="1" parent="e_u33HRkcJUVZcu0vvAd-14">
          <mxGeometry y="26" width="210" height="54" as="geometry" />
        </mxCell>
        <mxCell id="e_u33HRkcJUVZcu0vvAd-16" value="" style="line;strokeWidth=1;fillColor=none;align=left;verticalAlign=middle;spacingTop=-1;spacingLeft=3;spacingRight=3;rotatable=0;labelPosition=right;points=[];portConstraint=eastwest;strokeColor=inherit;" vertex="1" parent="e_u33HRkcJUVZcu0vvAd-14">
          <mxGeometry y="80" width="210" height="20" as="geometry" />
        </mxCell>
        <mxCell id="e_u33HRkcJUVZcu0vvAd-46" value="Paciente" style="swimlane;fontStyle=1;align=center;verticalAlign=top;childLayout=stackLayout;horizontal=1;startSize=26;horizontalStack=0;resizeParent=1;resizeParentMax=0;resizeLast=0;collapsible=1;marginBottom=0;whiteSpace=wrap;html=1;" vertex="1" parent="WIyWlLk6GJQsqaUBKTNV-1">
          <mxGeometry x="470" y="440" width="190" height="210" as="geometry" />
        </mxCell>
        <mxCell id="e_u33HRkcJUVZcu0vvAd-47" value="&lt;div&gt;- id: long&lt;/div&gt;- nome: String&lt;div&gt;- dataNascimento: LocalDate&lt;br&gt;&lt;div&gt;- cpf: String&lt;/div&gt;&lt;/div&gt;&lt;div&gt;- emailPessoal: String&lt;/div&gt;&lt;div&gt;- emailInstitucional: String&lt;/div&gt;&lt;div&gt;- telefone: String&lt;/div&gt;&lt;div&gt;- telefoneEmergencia: String&lt;/div&gt;&lt;div&gt;- prontuario: Prontuario&lt;/div&gt;&lt;div&gt;- acompanhante: Acompanhante&lt;/div&gt;" style="text;strokeColor=none;fillColor=none;align=left;verticalAlign=top;spacingLeft=4;spacingRight=4;overflow=hidden;rotatable=0;points=[[0,0.5],[1,0.5]];portConstraint=eastwest;whiteSpace=wrap;html=1;" vertex="1" parent="e_u33HRkcJUVZcu0vvAd-46">
          <mxGeometry y="26" width="190" height="154" as="geometry" />
        </mxCell>
        <mxCell id="e_u33HRkcJUVZcu0vvAd-48" value="" style="line;strokeWidth=1;fillColor=none;align=left;verticalAlign=middle;spacingTop=-1;spacingLeft=3;spacingRight=3;rotatable=0;labelPosition=right;points=[];portConstraint=eastwest;strokeColor=inherit;" vertex="1" parent="e_u33HRkcJUVZcu0vvAd-46">
          <mxGeometry y="180" width="190" height="30" as="geometry" />
        </mxCell>
        <mxCell id="e_u33HRkcJUVZcu0vvAd-49" value="Acompanhante" style="swimlane;fontStyle=1;align=center;verticalAlign=top;childLayout=stackLayout;horizontal=1;startSize=26;horizontalStack=0;resizeParent=1;resizeParentMax=0;resizeLast=0;collapsible=1;marginBottom=0;whiteSpace=wrap;html=1;" vertex="1" parent="WIyWlLk6GJQsqaUBKTNV-1">
          <mxGeometry x="690" y="445" width="180" height="160" as="geometry" />
        </mxCell>
        <mxCell id="e_u33HRkcJUVZcu0vvAd-50" value="&lt;div&gt;- id: long&lt;/div&gt;- nome: String&lt;div&gt;- dataNascimento: LocalDate&lt;br&gt;&lt;div&gt;- cpf: String&lt;/div&gt;&lt;/div&gt;&lt;div&gt;- emailPessoal: String&lt;/div&gt;&lt;div&gt;- telefone: String&lt;/div&gt;&lt;div&gt;- parentesco: String&lt;/div&gt;" style="text;strokeColor=none;fillColor=none;align=left;verticalAlign=top;spacingLeft=4;spacingRight=4;overflow=hidden;rotatable=0;points=[[0,0.5],[1,0.5]];portConstraint=eastwest;whiteSpace=wrap;html=1;" vertex="1" parent="e_u33HRkcJUVZcu0vvAd-49">
          <mxGeometry y="26" width="180" height="104" as="geometry" />
        </mxCell>
        <mxCell id="e_u33HRkcJUVZcu0vvAd-51" value="" style="line;strokeWidth=1;fillColor=none;align=left;verticalAlign=middle;spacingTop=-1;spacingLeft=3;spacingRight=3;rotatable=0;labelPosition=right;points=[];portConstraint=eastwest;strokeColor=inherit;" vertex="1" parent="e_u33HRkcJUVZcu0vvAd-49">
          <mxGeometry y="130" width="180" height="30" as="geometry" />
        </mxCell>
        <mxCell id="e_u33HRkcJUVZcu0vvAd-52" value="Consulta" style="swimlane;fontStyle=1;align=center;verticalAlign=top;childLayout=stackLayout;horizontal=1;startSize=26;horizontalStack=0;resizeParent=1;resizeParentMax=0;resizeLast=0;collapsible=1;marginBottom=0;whiteSpace=wrap;html=1;" vertex="1" parent="WIyWlLk6GJQsqaUBKTNV-1">
          <mxGeometry x="210" y="440" width="190" height="220" as="geometry" />
        </mxCell>
        <mxCell id="e_u33HRkcJUVZcu0vvAd-53" value="&lt;div&gt;- id: long&lt;/div&gt;- data: LocalDate&lt;div&gt;- hora: LocalTime&lt;/div&gt;&lt;div&gt;- local: String&lt;br&gt;&lt;div&gt;- paciente: Paciente&lt;/div&gt;&lt;/div&gt;&lt;div&gt;- medico: Medico&lt;/div&gt;&lt;div&gt;- status: String&lt;/div&gt;&lt;div&gt;- tipoConsulta: String&lt;/div&gt;&lt;div&gt;- isPacientePresente: boolean&lt;br&gt;&lt;/div&gt;&lt;div&gt;- isPacienteElegivel: boolean&lt;/div&gt;&lt;div&gt;- resumoConsulta: String&lt;/div&gt;&lt;div&gt;- observacao: String&lt;/div&gt;" style="text;strokeColor=none;fillColor=none;align=left;verticalAlign=top;spacingLeft=4;spacingRight=4;overflow=hidden;rotatable=0;points=[[0,0.5],[1,0.5]];portConstraint=eastwest;whiteSpace=wrap;html=1;" vertex="1" parent="e_u33HRkcJUVZcu0vvAd-52">
          <mxGeometry y="26" width="190" height="164" as="geometry" />
        </mxCell>
        <mxCell id="e_u33HRkcJUVZcu0vvAd-54" value="" style="line;strokeWidth=1;fillColor=none;align=left;verticalAlign=middle;spacingTop=-1;spacingLeft=3;spacingRight=3;rotatable=0;labelPosition=right;points=[];portConstraint=eastwest;strokeColor=inherit;" vertex="1" parent="e_u33HRkcJUVZcu0vvAd-52">
          <mxGeometry y="190" width="190" height="30" as="geometry" />
        </mxCell>
      </root>
    </mxGraphModel>
  </diagram>
</mxfile>
